<?xml version="1.0" encoding="utf-8" standalone="no"?>
<!DOCTYPE svg PUBLIC "-//W3C//DTD SVG 1.1//EN"
  "http://www.w3.org/Graphics/SVG/1.1/DTD/svg11.dtd">
<svg xmlns:xlink="http://www.w3.org/1999/xlink" width="792pt" height="381.6pt" viewBox="0 0 792 381.6" xmlns="http://www.w3.org/2000/svg" version="1.1">
 <metadata>
  <rdf:RDF xmlns:dc="http://purl.org/dc/elements/1.1/" xmlns:cc="http://creativecommons.org/ns#" xmlns:rdf="http://www.w3.org/1999/02/22-rdf-syntax-ns#">
   <cc:Work>
    <dc:type rdf:resource="http://purl.org/dc/dcmitype/StillImage"/>
    <dc:format>image/svg+xml</dc:format>
    <dc:creator>
     <cc:Agent>
      <dc:title>Matplotlib v3.11.2, https://matplotlib.org/</dc:title>
     </cc:Agent>
    </dc:creator>
   </cc:Work>
  </rdf:RDF>
 </metadata>
 <defs>
  <style type="text/css">*{stroke-linejoin: round; stroke-linecap: butt}</style>
 </defs>
 <g id="figure_1">
  <g id="patch_1">
   <path d="M 0 381.6
L 792 381.6
L 792 0
L 0 0
z
" style="fill: #ffffff"/>
  </g>
  <g id="axes_1">
   <g id="patch_2">
    <path d="M 218.272727 180.283019
L 573.727273 180.283019
L 573.727273 92.641509
L 218.272727 92.641509
z
" clip-path="url(#p8abcea6dc9)" style="fill: #e5eff6; stroke: #245777; stroke-width: 1.7; stroke-linejoin: miter"/>
   </g>
   <g id="line2d_1">
    <path d="M 218.272727 264.418868
L 253.818182 264.418868
L 289.363636 264.418868
L 324.909091 264.418868
L 360.454545 264.418868
L 396 264.418868
L 431.545455 264.418868
L 467.090909 264.418868
L 502.636364 264.418868
L 538.181818 264.418868
L 573.727273 264.418868
" clip-path="url(#p8abcea6dc9)" style="fill: none; stroke: #245777; stroke-width: 1.5; stroke-linecap: square"/>
    <defs>
     <path id="me316f74f14" d="M 0 2.5
C 0.663008 2.5 1.29895 2.236584 1.767767 1.767767
C 2.236584 1.29895 2.5 0.663008 2.5 0
C 2.5 -0.663008 2.236584 -1.29895 1.767767 -1.767767
C 1.29895 -2.236584 0.663008 -2.5 0 -2.5
C -0.663008 -2.5 -1.29895 -2.236584 -1.767767 -1.767767
C -2.236584 -1.29895 -2.5 -0.663008 -2.5 0
C -2.5 0.663008 -2.236584 1.29895 -1.767767 1.767767
C -1.29895 2.236584 -0.663008 2.5 0 2.5
z
" style="stroke: #245777"/>
    </defs>
    <g clip-path="url(#p8abcea6dc9)">
     <use xlink:href="#me316f74f14" x="218.272727" y="264.418868" style="fill: #245777; stroke: #245777"/>
     <use xlink:href="#me316f74f14" x="253.818182" y="264.418868" style="fill: #245777; stroke: #245777"/>
     <use xlink:href="#me316f74f14" x="289.363636" y="264.418868" style="fill: #245777; stroke: #245777"/>
     <use xlink:href="#me316f74f14" x="324.909091" y="264.418868" style="fill: #245777; stroke: #245777"/>
     <use xlink:href="#me316f74f14" x="360.454545" y="264.418868" style="fill: #245777; stroke: #245777"/>
     <use xlink:href="#me316f74f14" x="396" y="264.418868" style="fill: #245777; stroke: #245777"/>
     <use xlink:href="#me316f74f14" x="431.545455" y="264.418868" style="fill: #245777; stroke: #245777"/>
     <use xlink:href="#me316f74f14" x="467.090909" y="264.418868" style="fill: #245777; stroke: #245777"/>
     <use xlink:href="#me316f74f14" x="502.636364" y="264.418868" style="fill: #245777; stroke: #245777"/>
     <use xlink:href="#me316f74f14" x="538.181818" y="264.418868" style="fill: #245777; stroke: #245777"/>
     <use xlink:href="#me316f74f14" x="573.727273" y="264.418868" style="fill: #245777; stroke: #245777"/>
    </g>
   </g>
   <g id="text_1">
    <!-- Model geometry and numerical grid -->
    <g transform="translate(26.327273 29.539623) scale(0.18 -0.18)">
     <defs>
      <path id="DejaVuSans-Bold-30" d="M 588 4666
L 2119 4666
L 3181 2169
L 4250 4666
L 5778 4666
L 5778 0
L 4641 0
L 4641 3413
L 3566 897
L 2803 897
L 1728 3413
L 1728 0
L 588 0
L 588 4666
z
" transform="scale(0.015625)"/>
      <path id="DejaVuSans-Bold-52" d="M 2203 2784
Q 1831 2784 1636 2517
Q 1441 2250 1441 1747
Q 1441 1244 1636 976
Q 1831 709 2203 709
Q 2569 709 2762 976
Q 2956 1244 2956 1747
Q 2956 2250 2762 2517
Q 2569 2784 2203 2784
z
M 2203 3584
Q 3106 3584 3614 3096
Q 4122 2609 4122 1747
Q 4122 884 3614 396
Q 3106 -91 2203 -91
Q 1297 -91 786 396
Q 275 884 275 1747
Q 275 2609 786 3096
Q 1297 3584 2203 3584
z
" transform="scale(0.015625)"/>
      <path id="DejaVuSans-Bold-47" d="M 2919 2988
L 2919 4863
L 4044 4863
L 4044 0
L 2919 0
L 2919 506
Q 2688 197 2409 53
Q 2131 -91 1766 -91
Q 1119 -91 703 423
Q 288 938 288 1747
Q 288 2556 703 3070
Q 1119 3584 1766 3584
Q 2128 3584 2408 3439
Q 2688 3294 2919 2988
z
M 2181 722
Q 2541 722 2730 984
Q 2919 1247 2919 1747
Q 2919 2247 2730 2509
Q 2541 2772 2181 2772
Q 1825 2772 1636 2509
Q 1447 2247 1447 1747
Q 1447 1247 1636 984
Q 1825 722 2181 722
z
" transform="scale(0.015625)"/>
      <path id="DejaVuSans-Bold-48" d="M 4031 1759
L 4031 1441
L 1416 1441
Q 1456 1047 1700 850
Q 1944 653 2381 653
Q 2734 653 3104 758
Q 3475 863 3866 1075
L 3866 213
Q 3469 63 3072 -14
Q 2675 -91 2278 -91
Q 1328 -91 801 392
Q 275 875 275 1747
Q 275 2603 792 3093
Q 1309 3584 2216 3584
Q 3041 3584 3536 3087
Q 4031 2591 4031 1759
z
M 2881 2131
Q 2881 2450 2695 2645
Q 2509 2841 2209 2841
Q 1884 2841 1681 2658
Q 1478 2475 1428 2131
L 2881 2131
z
" transform="scale(0.015625)"/>
      <path id="DejaVuSans-Bold-4f" d="M 538 4863
L 1656 4863
L 1656 0
L 538 0
L 538 4863
z
" transform="scale(0.015625)"/>
      <path id="DejaVuSans-Bold-3" transform="scale(0.015625)"/>
      <path id="DejaVuSans-Bold-4a" d="M 2919 594
Q 2688 288 2409 144
Q 2131 0 1766 0
Q 1125 0 706 504
Q 288 1009 288 1791
Q 288 2575 706 3076
Q 1125 3578 1766 3578
Q 2131 3578 2409 3434
Q 2688 3291 2919 2981
L 2919 3500
L 4044 3500
L 4044 353
Q 4044 -491 3511 -936
Q 2978 -1381 1966 -1381
Q 1638 -1381 1331 -1331
Q 1025 -1281 716 -1178
L 716 -306
Q 1009 -475 1290 -558
Q 1572 -641 1856 -641
Q 2406 -641 2662 -400
Q 2919 -159 2919 353
L 2919 594
z
M 2181 2772
Q 1834 2772 1640 2515
Q 1447 2259 1447 1791
Q 1447 1309 1634 1061
Q 1822 813 2181 813
Q 2531 813 2725 1069
Q 2919 1325 2919 1791
Q 2919 2259 2725 2515
Q 2531 2772 2181 2772
z
" transform="scale(0.015625)"/>
      <path id="DejaVuSans-Bold-50" d="M 3781 2919
Q 3994 3244 4286 3414
Q 4578 3584 4928 3584
Q 5531 3584 5847 3212
Q 6163 2841 6163 2131
L 6163 0
L 5038 0
L 5038 1825
Q 5041 1866 5042 1909
Q 5044 1953 5044 2034
Q 5044 2406 4934 2573
Q 4825 2741 4581 2741
Q 4263 2741 4089 2478
Q 3916 2216 3909 1719
L 3909 0
L 2784 0
L 2784 1825
Q 2784 2406 2684 2573
Q 2584 2741 2328 2741
Q 2006 2741 1831 2477
Q 1656 2213 1656 1722
L 1656 0
L 531 0
L 531 3500
L 1656 3500
L 1656 2988
Q 1863 3284 2130 3434
Q 2397 3584 2719 3584
Q 3081 3584 3359 3409
Q 3638 3234 3781 2919
z
" transform="scale(0.015625)"/>
      <path id="DejaVuSans-Bold-57" d="M 1759 4494
L 1759 3500
L 2913 3500
L 2913 2700
L 1759 2700
L 1759 1216
Q 1759 972 1856 886
Q 1953 800 2241 800
L 2816 800
L 2816 0
L 1856 0
Q 1194 0 917 276
Q 641 553 641 1216
L 641 2700
L 84 2700
L 84 3500
L 641 3500
L 641 4494
L 1759 4494
z
" transform="scale(0.015625)"/>
      <path id="DejaVuSans-Bold-55" d="M 3138 2547
Q 2991 2616 2845 2648
Q 2700 2681 2553 2681
Q 2122 2681 1889 2404
Q 1656 2128 1656 1613
L 1656 0
L 538 0
L 538 3500
L 1656 3500
L 1656 2925
Q 1872 3269 2151 3426
Q 2431 3584 2822 3584
Q 2878 3584 2943 3579
Q 3009 3575 3134 3559
L 3138 2547
z
" transform="scale(0.015625)"/>
      <path id="DejaVuSans-Bold-5c" d="M 78 3500
L 1197 3500
L 2138 1125
L 2938 3500
L 4056 3500
L 2584 -331
Q 2363 -916 2067 -1148
Q 1772 -1381 1288 -1381
L 641 -1381
L 641 -647
L 991 -647
Q 1275 -647 1404 -556
Q 1534 -466 1606 -231
L 1638 -134
L 78 3500
z
" transform="scale(0.015625)"/>
      <path id="DejaVuSans-Bold-44" d="M 2106 1575
Q 1756 1575 1579 1456
Q 1403 1338 1403 1106
Q 1403 894 1545 773
Q 1688 653 1941 653
Q 2256 653 2472 879
Q 2688 1106 2688 1447
L 2688 1575
L 2106 1575
z
M 3816 1997
L 3816 0
L 2688 0
L 2688 519
Q 2463 200 2181 54
Q 1900 -91 1497 -91
Q 953 -91 614 226
Q 275 544 275 1050
Q 275 1666 698 1953
Q 1122 2241 2028 2241
L 2688 2241
L 2688 2328
Q 2688 2594 2478 2717
Q 2269 2841 1825 2841
Q 1466 2841 1156 2769
Q 847 2697 581 2553
L 581 3406
Q 941 3494 1303 3539
Q 1666 3584 2028 3584
Q 2975 3584 3395 3211
Q 3816 2838 3816 1997
z
" transform="scale(0.015625)"/>
      <path id="DejaVuSans-Bold-51" d="M 4056 2131
L 4056 0
L 2931 0
L 2931 347
L 2931 1631
Q 2931 2084 2911 2256
Q 2891 2428 2841 2509
Q 2775 2619 2662 2680
Q 2550 2741 2406 2741
Q 2056 2741 1856 2470
Q 1656 2200 1656 1722
L 1656 0
L 538 0
L 538 3500
L 1656 3500
L 1656 2988
Q 1909 3294 2193 3439
Q 2478 3584 2822 3584
Q 3428 3584 3742 3212
Q 4056 2841 4056 2131
z
" transform="scale(0.015625)"/>
      <path id="DejaVuSans-Bold-58" d="M 500 1363
L 500 3500
L 1625 3500
L 1625 3150
Q 1625 2866 1622 2436
Q 1619 2006 1619 1863
Q 1619 1441 1641 1255
Q 1663 1069 1716 984
Q 1784 875 1895 815
Q 2006 756 2150 756
Q 2500 756 2700 1025
Q 2900 1294 2900 1772
L 2900 3500
L 4019 3500
L 4019 0
L 2900 0
L 2900 506
Q 2647 200 2364 54
Q 2081 -91 1741 -91
Q 1134 -91 817 281
Q 500 653 500 1363
z
" transform="scale(0.015625)"/>
      <path id="DejaVuSans-Bold-4c" d="M 538 3500
L 1656 3500
L 1656 0
L 538 0
L 538 3500
z
M 538 4863
L 1656 4863
L 1656 3950
L 538 3950
L 538 4863
z
" transform="scale(0.015625)"/>
      <path id="DejaVuSans-Bold-46" d="M 3366 3391
L 3366 2478
Q 3138 2634 2908 2709
Q 2678 2784 2431 2784
Q 1963 2784 1702 2511
Q 1441 2238 1441 1747
Q 1441 1256 1702 982
Q 1963 709 2431 709
Q 2694 709 2930 787
Q 3166 866 3366 1019
L 3366 103
Q 3103 6 2833 -42
Q 2563 -91 2291 -91
Q 1344 -91 809 395
Q 275 881 275 1747
Q 275 2613 809 3098
Q 1344 3584 2291 3584
Q 2566 3584 2833 3536
Q 3100 3488 3366 3391
z
" transform="scale(0.015625)"/>
     </defs>
     <use xlink:href="#DejaVuSans-Bold-30"/>
     <use xlink:href="#DejaVuSans-Bold-52" transform="translate(99.515625 0)"/>
     <use xlink:href="#DejaVuSans-Bold-47" transform="translate(168.21875 0)"/>
     <use xlink:href="#DejaVuSans-Bold-48" transform="translate(239.796875 0)"/>
     <use xlink:href="#DejaVuSans-Bold-4f" transform="translate(307.625 0)"/>
     <use xlink:href="#DejaVuSans-Bold-3" transform="translate(341.90625 0)"/>
     <use xlink:href="#DejaVuSans-Bold-4a" transform="translate(376.71875 0)"/>
     <use xlink:href="#DejaVuSans-Bold-48" transform="translate(448.296875 0)"/>
     <use xlink:href="#DejaVuSans-Bold-52" transform="translate(516.125 0)"/>
     <use xlink:href="#DejaVuSans-Bold-50" transform="translate(584.828125 0)"/>
     <use xlink:href="#DejaVuSans-Bold-48" transform="translate(689.03125 0)"/>
     <use xlink:href="#DejaVuSans-Bold-57" transform="translate(756.859375 0)"/>
     <use xlink:href="#DejaVuSans-Bold-55" transform="translate(804.65625 0)"/>
     <use xlink:href="#DejaVuSans-Bold-5c" transform="translate(853.96875 0)"/>
     <use xlink:href="#DejaVuSans-Bold-3" transform="translate(919.15625 0)"/>
     <use xlink:href="#DejaVuSans-Bold-44" transform="translate(953.96875 0)"/>
     <use xlink:href="#DejaVuSans-Bold-51" transform="translate(1021.453125 0)"/>
     <use xlink:href="#DejaVuSans-Bold-47" transform="translate(1092.640625 0)"/>
     <use xlink:href="#DejaVuSans-Bold-3" transform="translate(1164.21875 0)"/>
     <use xlink:href="#DejaVuSans-Bold-51" transform="translate(1199.03125 0)"/>
     <use xlink:href="#DejaVuSans-Bold-58" transform="translate(1270.21875 0)"/>
     <use xlink:href="#DejaVuSans-Bold-50" transform="translate(1341.40625 0)"/>
     <use xlink:href="#DejaVuSans-Bold-48" transform="translate(1445.609375 0)"/>
     <use xlink:href="#DejaVuSans-Bold-55" transform="translate(1513.4375 0)"/>
     <use xlink:href="#DejaVuSans-Bold-4c" transform="translate(1562.75 0)"/>
     <use xlink:href="#DejaVuSans-Bold-46" transform="translate(1597.03125 0)"/>
     <use xlink:href="#DejaVuSans-Bold-44" transform="translate(1656.3125 0)"/>
     <use xlink:href="#DejaVuSans-Bold-4f" transform="translate(1723.796875 0)"/>
     <use xlink:href="#DejaVuSans-Bold-3" transform="translate(1758.078125 0)"/>
     <use xlink:href="#DejaVuSans-Bold-4a" transform="translate(1792.890625 0)"/>
     <use xlink:href="#DejaVuSans-Bold-55" transform="translate(1864.46875 0)"/>
     <use xlink:href="#DejaVuSans-Bold-4c" transform="translate(1913.78125 0)"/>
     <use xlink:href="#DejaVuSans-Bold-47" transform="translate(1948.0625 0)"/>
    </g>
   </g>
   <g id="text_2">
    <!-- Idealized slab exposed to equal concentration reservoirs on both faces -->
    <g transform="translate(26.327273 57.584906) scale(0.11 -0.11)">
     <defs>
      <path id="DejaVuSans-2c" d="M 628 4666
L 1259 4666
L 1259 0
L 628 0
L 628 4666
z
" transform="scale(0.015625)"/>
      <path id="DejaVuSans-47" d="M 2906 2969
L 2906 4863
L 3481 4863
L 3481 0
L 2906 0
L 2906 525
Q 2725 213 2448 61
Q 2172 -91 1784 -91
Q 1150 -91 751 415
Q 353 922 353 1747
Q 353 2572 751 3078
Q 1150 3584 1784 3584
Q 2172 3584 2448 3432
Q 2725 3281 2906 2969
z
M 947 1747
Q 947 1113 1208 752
Q 1469 391 1925 391
Q 2381 391 2643 752
Q 2906 1113 2906 1747
Q 2906 2381 2643 2742
Q 2381 3103 1925 3103
Q 1469 3103 1208 2742
Q 947 2381 947 1747
z
" transform="scale(0.015625)"/>
      <path id="DejaVuSans-48" d="M 3597 1894
L 3597 1613
L 953 1613
Q 991 1019 1311 708
Q 1631 397 2203 397
Q 2534 397 2845 478
Q 3156 559 3463 722
L 3463 178
Q 3153 47 2828 -22
Q 2503 -91 2169 -91
Q 1331 -91 842 396
Q 353 884 353 1716
Q 353 2575 817 3079
Q 1281 3584 2069 3584
Q 2775 3584 3186 3129
Q 3597 2675 3597 1894
z
M 3022 2063
Q 3016 2534 2758 2815
Q 2500 3097 2075 3097
Q 1594 3097 1305 2825
Q 1016 2553 972 2059
L 3022 2063
z
" transform="scale(0.015625)"/>
      <path id="DejaVuSans-44" d="M 2194 1759
Q 1497 1759 1228 1600
Q 959 1441 959 1056
Q 959 750 1161 570
Q 1363 391 1709 391
Q 2188 391 2477 730
Q 2766 1069 2766 1631
L 2766 1759
L 2194 1759
z
M 3341 1997
L 3341 0
L 2766 0
L 2766 531
Q 2569 213 2275 61
Q 1981 -91 1556 -91
Q 1019 -91 701 211
Q 384 513 384 1019
Q 384 1609 779 1909
Q 1175 2209 1959 2209
L 2766 2209
L 2766 2266
Q 2766 2663 2505 2880
Q 2244 3097 1772 3097
Q 1472 3097 1187 3025
Q 903 2953 641 2809
L 641 3341
Q 956 3463 1253 3523
Q 1550 3584 1831 3584
Q 2591 3584 2966 3190
Q 3341 2797 3341 1997
z
" transform="scale(0.015625)"/>
      <path id="DejaVuSans-4f" d="M 603 4863
L 1178 4863
L 1178 0
L 603 0
L 603 4863
z
" transform="scale(0.015625)"/>
      <path id="DejaVuSans-4c" d="M 603 3500
L 1178 3500
L 1178 0
L 603 0
L 603 3500
z
M 603 4863
L 1178 4863
L 1178 4134
L 603 4134
L 603 4863
z
" transform="scale(0.015625)"/>
      <path id="DejaVuSans-5d" d="M 353 3500
L 3084 3500
L 3084 2975
L 922 459
L 3084 459
L 3084 0
L 275 0
L 275 525
L 2438 3041
L 353 3041
L 353 3500
z
" transform="scale(0.015625)"/>
      <path id="DejaVuSans-3" transform="scale(0.015625)"/>
      <path id="DejaVuSans-56" d="M 2834 3397
L 2834 2853
Q 2591 2978 2328 3040
Q 2066 3103 1784 3103
Q 1356 3103 1142 2972
Q 928 2841 928 2578
Q 928 2378 1081 2264
Q 1234 2150 1697 2047
L 1894 2003
Q 2506 1872 2764 1633
Q 3022 1394 3022 966
Q 3022 478 2636 193
Q 2250 -91 1575 -91
Q 1294 -91 989 -36
Q 684 19 347 128
L 347 722
Q 666 556 975 473
Q 1284 391 1588 391
Q 1994 391 2212 530
Q 2431 669 2431 922
Q 2431 1156 2273 1281
Q 2116 1406 1581 1522
L 1381 1569
Q 847 1681 609 1914
Q 372 2147 372 2553
Q 372 3047 722 3315
Q 1072 3584 1716 3584
Q 2034 3584 2315 3537
Q 2597 3491 2834 3397
z
" transform="scale(0.015625)"/>
      <path id="DejaVuSans-45" d="M 3116 1747
Q 3116 2381 2855 2742
Q 2594 3103 2138 3103
Q 1681 3103 1420 2742
Q 1159 2381 1159 1747
Q 1159 1113 1420 752
Q 1681 391 2138 391
Q 2594 391 2855 752
Q 3116 1113 3116 1747
z
M 1159 2969
Q 1341 3281 1617 3432
Q 1894 3584 2278 3584
Q 2916 3584 3314 3078
Q 3713 2572 3713 1747
Q 3713 922 3314 415
Q 2916 -91 2278 -91
Q 1894 -91 1617 61
Q 1341 213 1159 525
L 1159 0
L 581 0
L 581 4863
L 1159 4863
L 1159 2969
z
" transform="scale(0.015625)"/>
      <path id="DejaVuSans-5b" d="M 3513 3500
L 2247 1797
L 3578 0
L 2900 0
L 1881 1375
L 863 0
L 184 0
L 1544 1831
L 300 3500
L 978 3500
L 1906 2253
L 2834 3500
L 3513 3500
z
" transform="scale(0.015625)"/>
      <path id="DejaVuSans-53" d="M 1159 525
L 1159 -1331
L 581 -1331
L 581 3500
L 1159 3500
L 1159 2969
Q 1341 3281 1617 3432
Q 1894 3584 2278 3584
Q 2916 3584 3314 3078
Q 3713 2572 3713 1747
Q 3713 922 3314 415
Q 2916 -91 2278 -91
Q 1894 -91 1617 61
Q 1341 213 1159 525
z
M 3116 1747
Q 3116 2381 2855 2742
Q 2594 3103 2138 3103
Q 1681 3103 1420 2742
Q 1159 2381 1159 1747
Q 1159 1113 1420 752
Q 1681 391 2138 391
Q 2594 391 2855 752
Q 3116 1113 3116 1747
z
" transform="scale(0.015625)"/>
      <path id="DejaVuSans-52" d="M 1959 3097
Q 1497 3097 1228 2736
Q 959 2375 959 1747
Q 959 1119 1226 758
Q 1494 397 1959 397
Q 2419 397 2687 759
Q 2956 1122 2956 1747
Q 2956 2369 2687 2733
Q 2419 3097 1959 3097
z
M 1959 3584
Q 2709 3584 3137 3096
Q 3566 2609 3566 1747
Q 3566 888 3137 398
Q 2709 -91 1959 -91
Q 1206 -91 779 398
Q 353 888 353 1747
Q 353 2609 779 3096
Q 1206 3584 1959 3584
z
" transform="scale(0.015625)"/>
      <path id="DejaVuSans-57" d="M 1172 4494
L 1172 3500
L 2356 3500
L 2356 3053
L 1172 3053
L 1172 1153
Q 1172 725 1289 603
Q 1406 481 1766 481
L 2356 481
L 2356 0
L 1766 0
Q 1100 0 847 248
Q 594 497 594 1153
L 594 3053
L 172 3053
L 172 3500
L 594 3500
L 594 4494
L 1172 4494
z
" transform="scale(0.015625)"/>
      <path id="DejaVuSans-54" d="M 947 1747
Q 947 1113 1208 752
Q 1469 391 1925 391
Q 2381 391 2643 752
Q 2906 1113 2906 1747
Q 2906 2381 2643 2742
Q 2381 3103 1925 3103
Q 1469 3103 1208 2742
Q 947 2381 947 1747
z
M 2906 525
Q 2725 213 2448 61
Q 2172 -91 1784 -91
Q 1150 -91 751 415
Q 353 922 353 1747
Q 353 2572 751 3078
Q 1150 3584 1784 3584
Q 2172 3584 2448 3432
Q 2725 3281 2906 2969
L 2906 3500
L 3481 3500
L 3481 -1331
L 2906 -1331
L 2906 525
z
" transform="scale(0.015625)"/>
      <path id="DejaVuSans-58" d="M 544 1381
L 544 3500
L 1119 3500
L 1119 1403
Q 1119 906 1312 657
Q 1506 409 1894 409
Q 2359 409 2629 706
Q 2900 1003 2900 1516
L 2900 3500
L 3475 3500
L 3475 0
L 2900 0
L 2900 538
Q 2691 219 2414 64
Q 2138 -91 1772 -91
Q 1169 -91 856 284
Q 544 659 544 1381
z
M 1991 3584
L 1991 3584
z
" transform="scale(0.015625)"/>
      <path id="DejaVuSans-46" d="M 3122 3366
L 3122 2828
Q 2878 2963 2633 3030
Q 2388 3097 2138 3097
Q 1578 3097 1268 2742
Q 959 2388 959 1747
Q 959 1106 1268 751
Q 1578 397 2138 397
Q 2388 397 2633 464
Q 2878 531 3122 666
L 3122 134
Q 2881 22 2623 -34
Q 2366 -91 2075 -91
Q 1284 -91 818 406
Q 353 903 353 1747
Q 353 2603 823 3093
Q 1294 3584 2113 3584
Q 2378 3584 2631 3529
Q 2884 3475 3122 3366
z
" transform="scale(0.015625)"/>
      <path id="DejaVuSans-51" d="M 3513 2113
L 3513 0
L 2938 0
L 2938 2094
Q 2938 2591 2744 2837
Q 2550 3084 2163 3084
Q 1697 3084 1428 2787
Q 1159 2491 1159 1978
L 1159 0
L 581 0
L 581 3500
L 1159 3500
L 1159 2956
Q 1366 3272 1645 3428
Q 1925 3584 2291 3584
Q 2894 3584 3203 3211
Q 3513 2838 3513 2113
z
" transform="scale(0.015625)"/>
      <path id="DejaVuSans-55" d="M 2631 2963
Q 2534 3019 2420 3045
Q 2306 3072 2169 3072
Q 1681 3072 1420 2755
Q 1159 2438 1159 1844
L 1159 0
L 581 0
L 581 3500
L 1159 3500
L 1159 2956
Q 1341 3275 1631 3429
Q 1922 3584 2338 3584
Q 2397 3584 2469 3576
Q 2541 3569 2628 3553
L 2631 2963
z
" transform="scale(0.015625)"/>
      <path id="DejaVuSans-59" d="M 191 3500
L 800 3500
L 1894 563
L 2988 3500
L 3597 3500
L 2284 0
L 1503 0
L 191 3500
z
" transform="scale(0.015625)"/>
      <path id="DejaVuSans-4b" d="M 3513 2113
L 3513 0
L 2938 0
L 2938 2094
Q 2938 2591 2744 2837
Q 2550 3084 2163 3084
Q 1697 3084 1428 2787
Q 1159 2491 1159 1978
L 1159 0
L 581 0
L 581 4863
L 1159 4863
L 1159 2956
Q 1366 3272 1645 3428
Q 1925 3584 2291 3584
Q 2894 3584 3203 3211
Q 3513 2838 3513 2113
z
" transform="scale(0.015625)"/>
      <path id="DejaVuSans-49" d="M 2375 4863
L 2375 4384
L 1825 4384
Q 1516 4384 1395 4259
Q 1275 4134 1275 3809
L 1275 3500
L 2222 3500
L 2222 3053
L 1275 3053
L 1275 0
L 697 0
L 697 3053
L 147 3053
L 147 3500
L 697 3500
L 697 3744
Q 697 4328 969 4595
Q 1241 4863 1831 4863
L 2375 4863
z
" transform="scale(0.015625)"/>
     </defs>
     <use xlink:href="#DejaVuSans-2c"/>
     <use xlink:href="#DejaVuSans-47" transform="translate(29.5 0)"/>
     <use xlink:href="#DejaVuSans-48" transform="translate(92.984375 0)"/>
     <use xlink:href="#DejaVuSans-44" transform="translate(154.515625 0)"/>
     <use xlink:href="#DejaVuSans-4f" transform="translate(215.796875 0)"/>
     <use xlink:href="#DejaVuSans-4c" transform="translate(243.578125 0)"/>
     <use xlink:href="#DejaVuSans-5d" transform="translate(271.359375 0)"/>
     <use xlink:href="#DejaVuSans-48" transform="translate(323.84375 0)"/>
     <use xlink:href="#DejaVuSans-47" transform="translate(385.375 0)"/>
     <use xlink:href="#DejaVuSans-3" transform="translate(448.859375 0)"/>
     <use xlink:href="#DejaVuSans-56" transform="translate(480.640625 0)"/>
     <use xlink:href="#DejaVuSans-4f" transform="translate(532.734375 0)"/>
     <use xlink:href="#DejaVuSans-44" transform="translate(560.515625 0)"/>
     <use xlink:href="#DejaVuSans-45" transform="translate(621.796875 0)"/>
     <use xlink:href="#DejaVuSans-3" transform="translate(685.28125 0)"/>
     <use xlink:href="#DejaVuSans-48" transform="translate(717.0625 0)"/>
     <use xlink:href="#DejaVuSans-5b" transform="translate(776.84375 0)"/>
     <use xlink:href="#DejaVuSans-53" transform="translate(836.03125 0)"/>
     <use xlink:href="#DejaVuSans-52" transform="translate(899.515625 0)"/>
     <use xlink:href="#DejaVuSans-56" transform="translate(960.703125 0)"/>
     <use xlink:href="#DejaVuSans-48" transform="translate(1012.796875 0)"/>
     <use xlink:href="#DejaVuSans-47" transform="translate(1074.328125 0)"/>
     <use xlink:href="#DejaVuSans-3" transform="translate(1137.8125 0)"/>
     <use xlink:href="#DejaVuSans-57" transform="translate(1169.59375 0)"/>
     <use xlink:href="#DejaVuSans-52" transform="translate(1208.796875 0)"/>
     <use xlink:href="#DejaVuSans-3" transform="translate(1269.984375 0)"/>
     <use xlink:href="#DejaVuSans-48" transform="translate(1301.765625 0)"/>
     <use xlink:href="#DejaVuSans-54" transform="translate(1363.296875 0)"/>
     <use xlink:href="#DejaVuSans-58" transform="translate(1426.78125 0)"/>
     <use xlink:href="#DejaVuSans-44" transform="translate(1490.15625 0)"/>
     <use xlink:href="#DejaVuSans-4f" transform="translate(1551.4375 0)"/>
     <use xlink:href="#DejaVuSans-3" transform="translate(1579.21875 0)"/>
     <use xlink:href="#DejaVuSans-46" transform="translate(1611 0)"/>
     <use xlink:href="#DejaVuSans-52" transform="translate(1665.984375 0)"/>
     <use xlink:href="#DejaVuSans-51" transform="translate(1727.171875 0)"/>
     <use xlink:href="#DejaVuSans-46" transform="translate(1790.546875 0)"/>
     <use xlink:href="#DejaVuSans-48" transform="translate(1845.53125 0)"/>
     <use xlink:href="#DejaVuSans-51" transform="translate(1907.0625 0)"/>
     <use xlink:href="#DejaVuSans-57" transform="translate(1970.4375 0)"/>
     <use xlink:href="#DejaVuSans-55" transform="translate(2009.640625 0)"/>
     <use xlink:href="#DejaVuSans-44" transform="translate(2050.75 0)"/>
     <use xlink:href="#DejaVuSans-57" transform="translate(2112.03125 0)"/>
     <use xlink:href="#DejaVuSans-4c" transform="translate(2151.234375 0)"/>
     <use xlink:href="#DejaVuSans-52" transform="translate(2179.015625 0)"/>
     <use xlink:href="#DejaVuSans-51" transform="translate(2240.203125 0)"/>
     <use xlink:href="#DejaVuSans-3" transform="translate(2303.578125 0)"/>
     <use xlink:href="#DejaVuSans-55" transform="translate(2335.359375 0)"/>
     <use xlink:href="#DejaVuSans-48" transform="translate(2374.265625 0)"/>
     <use xlink:href="#DejaVuSans-56" transform="translate(2435.796875 0)"/>
     <use xlink:href="#DejaVuSans-48" transform="translate(2487.890625 0)"/>
     <use xlink:href="#DejaVuSans-55" transform="translate(2549.421875 0)"/>
     <use xlink:href="#DejaVuSans-59" transform="translate(2590.53125 0)"/>
     <use xlink:href="#DejaVuSans-52" transform="translate(2649.71875 0)"/>
     <use xlink:href="#DejaVuSans-4c" transform="translate(2710.90625 0)"/>
     <use xlink:href="#DejaVuSans-55" transform="translate(2738.6875 0)"/>
     <use xlink:href="#DejaVuSans-56" transform="translate(2779.796875 0)"/>
     <use xlink:href="#DejaVuSans-3" transform="translate(2831.890625 0)"/>
     <use xlink:href="#DejaVuSans-52" transform="translate(2863.671875 0)"/>
     <use xlink:href="#DejaVuSans-51" transform="translate(2924.859375 0)"/>
     <use xlink:href="#DejaVuSans-3" transform="translate(2988.234375 0)"/>
     <use xlink:href="#DejaVuSans-45" transform="translate(3020.015625 0)"/>
     <use xlink:href="#DejaVuSans-52" transform="translate(3083.5 0)"/>
     <use xlink:href="#DejaVuSans-57" transform="translate(3144.6875 0)"/>
     <use xlink:href="#DejaVuSans-4b" transform="translate(3183.890625 0)"/>
     <use xlink:href="#DejaVuSans-3" transform="translate(3247.265625 0)"/>
     <use xlink:href="#DejaVuSans-49" transform="translate(3279.046875 0)"/>
     <use xlink:href="#DejaVuSans-44" transform="translate(3314.25 0)"/>
     <use xlink:href="#DejaVuSans-46" transform="translate(3375.53125 0)"/>
     <use xlink:href="#DejaVuSans-48" transform="translate(3430.515625 0)"/>
     <use xlink:href="#DejaVuSans-56" transform="translate(3492.046875 0)"/>
    </g>
   </g>
   <g id="patch_3">
    <path d="M 113.637748 136.81283
Q 164.954168 136.81283 213.810912 136.81283
" style="fill: none; stroke: #087e8b; stroke-width: 2.2; stroke-linecap: round"/>
    <path d="M 209.810912 134.81283
L 213.810912 136.81283
L 209.810912 138.81283
z
" style="fill: #087e8b; stroke: #087e8b; stroke-width: 2.2; stroke-linecap: round"/>
   </g>
   <g id="patch_4">
    <path d="M 678.362252 136.81283
Q 627.045832 136.81283 578.189088 136.81283
" style="fill: none; stroke: #087e8b; stroke-width: 2.2; stroke-linecap: round"/>
    <path d="M 582.189088 138.81283
L 578.189088 136.81283
L 582.189088 134.81283
z
" style="fill: #087e8b; stroke: #087e8b; stroke-width: 2.2; stroke-linecap: round"/>
   </g>
   <g id="text_3">
    <!-- Reservoir -->
    <g transform="translate(36.990909 106.664151) scale(0.12 -0.12)">
     <defs>
      <path id="DejaVuSans-35" d="M 2841 2188
Q 3044 2119 3236 1894
Q 3428 1669 3622 1275
L 4263 0
L 3584 0
L 2988 1197
Q 2756 1666 2539 1819
Q 2322 1972 1947 1972
L 1259 1972
L 1259 0
L 628 0
L 628 4666
L 2053 4666
Q 2853 4666 3247 4331
Q 3641 3997 3641 3322
Q 3641 2881 3436 2590
Q 3231 2300 2841 2188
z
M 1259 4147
L 1259 2491
L 2053 2491
Q 2509 2491 2742 2702
Q 2975 2913 2975 3322
Q 2975 3731 2742 3939
Q 2509 4147 2053 4147
L 1259 4147
z
" transform="scale(0.015625)"/>
     </defs>
     <use xlink:href="#DejaVuSans-35"/>
     <use xlink:href="#DejaVuSans-48" transform="translate(65 0)"/>
     <use xlink:href="#DejaVuSans-56" transform="translate(126.53125 0)"/>
     <use xlink:href="#DejaVuSans-48" transform="translate(178.625 0)"/>
     <use xlink:href="#DejaVuSans-55" transform="translate(240.15625 0)"/>
     <use xlink:href="#DejaVuSans-59" transform="translate(281.265625 0)"/>
     <use xlink:href="#DejaVuSans-52" transform="translate(340.453125 0)"/>
     <use xlink:href="#DejaVuSans-4c" transform="translate(401.640625 0)"/>
     <use xlink:href="#DejaVuSans-55" transform="translate(429.421875 0)"/>
    </g>
   </g>
   <g id="text_4">
    <!-- $C(0,t)=C_s$ -->
    <g transform="translate(36.990909 164.858113) scale(0.13 -0.13)">
     <defs>
      <path id="DejaVuSans-Oblique-26" d="M 4447 4306
L 4319 3641
Q 4019 3944 3683 4091
Q 3347 4238 2956 4238
Q 2422 4238 2017 3981
Q 1613 3725 1319 3200
Q 1131 2863 1032 2486
Q 934 2109 934 1728
Q 934 1091 1264 756
Q 1594 422 2222 422
Q 2656 422 3056 561
Q 3456 700 3834 978
L 3688 231
Q 3316 72 2936 -9
Q 2556 -91 2175 -91
Q 1278 -91 773 396
Q 269 884 269 1753
Q 269 2309 461 2846
Q 653 3384 1013 3828
Q 1394 4300 1883 4525
Q 2372 4750 3022 4750
Q 3422 4750 3780 4639
Q 4138 4528 4447 4306
z
" transform="scale(0.015625)"/>
      <path id="DejaVuSans-b" d="M 1984 4856
Q 1566 4138 1362 3434
Q 1159 2731 1159 2009
Q 1159 1288 1364 580
Q 1569 -128 1984 -844
L 1484 -844
Q 1016 -109 783 600
Q 550 1309 550 2009
Q 550 2706 781 3412
Q 1013 4119 1484 4856
L 1984 4856
z
" transform="scale(0.015625)"/>
      <path id="DejaVuSans-13" d="M 2034 4250
Q 1547 4250 1301 3770
Q 1056 3291 1056 2328
Q 1056 1369 1301 889
Q 1547 409 2034 409
Q 2525 409 2770 889
Q 3016 1369 3016 2328
Q 3016 3291 2770 3770
Q 2525 4250 2034 4250
z
M 2034 4750
Q 2819 4750 3233 4129
Q 3647 3509 3647 2328
Q 3647 1150 3233 529
Q 2819 -91 2034 -91
Q 1250 -91 836 529
Q 422 1150 422 2328
Q 422 3509 836 4129
Q 1250 4750 2034 4750
z
" transform="scale(0.015625)"/>
      <path id="DejaVuSans-f" d="M 750 794
L 1409 794
L 1409 256
L 897 -744
L 494 -744
L 750 256
L 750 794
z
" transform="scale(0.015625)"/>
      <path id="DejaVuSans-Oblique-57" d="M 2706 3500
L 2619 3053
L 1472 3053
L 1100 1153
Q 1081 1047 1072 975
Q 1063 903 1063 863
Q 1063 663 1183 572
Q 1303 481 1569 481
L 2150 481
L 2053 0
L 1503 0
Q 991 0 739 200
Q 488 400 488 806
Q 488 878 497 964
Q 506 1050 525 1153
L 897 3053
L 409 3053
L 500 3500
L 978 3500
L 1172 4494
L 1747 4494
L 1556 3500
L 2706 3500
z
" transform="scale(0.015625)"/>
      <path id="DejaVuSans-c" d="M 513 4856
L 1013 4856
Q 1481 4119 1714 3412
Q 1947 2706 1947 2009
Q 1947 1309 1714 600
Q 1481 -109 1013 -844
L 513 -844
Q 928 -128 1133 580
Q 1338 1288 1338 2009
Q 1338 2731 1133 3434
Q 928 4138 513 4856
z
" transform="scale(0.015625)"/>
      <path id="DejaVuSans-20" d="M 678 2906
L 4684 2906
L 4684 2381
L 678 2381
L 678 2906
z
M 678 1631
L 4684 1631
L 4684 1100
L 678 1100
L 678 1631
z
" transform="scale(0.015625)"/>
      <path id="DejaVuSans-Oblique-56" d="M 3200 3397
L 3091 2853
Q 2863 2978 2609 3040
Q 2356 3103 2088 3103
Q 1634 3103 1373 2948
Q 1113 2794 1113 2528
Q 1113 2219 1719 2053
Q 1766 2041 1788 2034
L 1972 1978
Q 2547 1819 2739 1644
Q 2931 1469 2931 1166
Q 2931 609 2489 259
Q 2047 -91 1331 -91
Q 1053 -91 747 -37
Q 441 16 72 128
L 184 722
Q 500 559 806 475
Q 1113 391 1394 391
Q 1816 391 2080 572
Q 2344 753 2344 1031
Q 2344 1331 1650 1516
L 1591 1531
L 1394 1581
Q 956 1697 753 1886
Q 550 2075 550 2369
Q 550 2928 970 3256
Q 1391 3584 2113 3584
Q 2397 3584 2667 3537
Q 2938 3491 3200 3397
z
" transform="scale(0.015625)"/>
     </defs>
     <use xlink:href="#DejaVuSans-Oblique-26" transform="translate(0 0.125)"/>
     <use xlink:href="#DejaVuSans-b" transform="translate(69.824219 0.125)"/>
     <use xlink:href="#DejaVuSans-13" transform="translate(108.837891 0.125)"/>
     <use xlink:href="#DejaVuSans-f" transform="translate(172.460938 0.125)"/>
     <use xlink:href="#DejaVuSans-Oblique-57" transform="translate(223.730469 0.125)"/>
     <use xlink:href="#DejaVuSans-c" transform="translate(262.939453 0.125)"/>
     <use xlink:href="#DejaVuSans-20" transform="translate(321.435547 0.125)"/>
     <use xlink:href="#DejaVuSans-Oblique-26" transform="translate(424.707031 0.125)"/>
     <use xlink:href="#DejaVuSans-Oblique-56" transform="translate(494.53125 -14.874951) scale(0.7)"/>
    </g>
   </g>
   <g id="text_5">
    <!-- Reservoir -->
    <g transform="translate(612.827273 106.664151) scale(0.12 -0.12)">
     <use xlink:href="#DejaVuSans-35"/>
     <use xlink:href="#DejaVuSans-48" transform="translate(65 0)"/>
     <use xlink:href="#DejaVuSans-56" transform="translate(126.53125 0)"/>
     <use xlink:href="#DejaVuSans-48" transform="translate(178.625 0)"/>
     <use xlink:href="#DejaVuSans-55" transform="translate(240.15625 0)"/>
     <use xlink:href="#DejaVuSans-59" transform="translate(281.265625 0)"/>
     <use xlink:href="#DejaVuSans-52" transform="translate(340.453125 0)"/>
     <use xlink:href="#DejaVuSans-4c" transform="translate(401.640625 0)"/>
     <use xlink:href="#DejaVuSans-55" transform="translate(429.421875 0)"/>
    </g>
   </g>
   <g id="text_6">
    <!-- $C(L,t)=C_s$ -->
    <g transform="translate(612.827273 164.858113) scale(0.13 -0.13)">
     <defs>
      <path id="DejaVuSans-Oblique-2f" d="M 1075 4666
L 1709 4666
L 909 525
L 3181 525
L 3078 0
L 172 0
L 1075 4666
z
" transform="scale(0.015625)"/>
     </defs>
     <use xlink:href="#DejaVuSans-Oblique-26" transform="translate(0 0.125)"/>
     <use xlink:href="#DejaVuSans-b" transform="translate(69.824219 0.125)"/>
     <use xlink:href="#DejaVuSans-Oblique-2f" transform="translate(108.837891 0.125)"/>
     <use xlink:href="#DejaVuSans-f" transform="translate(164.550781 0.125)"/>
     <use xlink:href="#DejaVuSans-Oblique-57" transform="translate(215.820312 0.125)"/>
     <use xlink:href="#DejaVuSans-c" transform="translate(255.029297 0.125)"/>
     <use xlink:href="#DejaVuSans-20" transform="translate(313.525391 0.125)"/>
     <use xlink:href="#DejaVuSans-Oblique-26" transform="translate(416.796875 0.125)"/>
     <use xlink:href="#DejaVuSans-Oblique-56" transform="translate(486.621094 -14.874951) scale(0.7)"/>
    </g>
   </g>
   <g id="text_7">
    <!-- Uniform, constant diffusivity D -->
    <g transform="translate(304.494375 127.698113) scale(0.12 -0.12)">
     <defs>
      <path id="DejaVuSans-38" d="M 556 4666
L 1191 4666
L 1191 1831
Q 1191 1081 1462 751
Q 1734 422 2344 422
Q 2950 422 3222 751
Q 3494 1081 3494 1831
L 3494 4666
L 4128 4666
L 4128 1753
Q 4128 841 3676 375
Q 3225 -91 2344 -91
Q 1459 -91 1007 375
Q 556 841 556 1753
L 556 4666
z
" transform="scale(0.015625)"/>
      <path id="DejaVuSans-50" d="M 3328 2828
Q 3544 3216 3844 3400
Q 4144 3584 4550 3584
Q 5097 3584 5394 3201
Q 5691 2819 5691 2113
L 5691 0
L 5113 0
L 5113 2094
Q 5113 2597 4934 2840
Q 4756 3084 4391 3084
Q 3944 3084 3684 2787
Q 3425 2491 3425 1978
L 3425 0
L 2847 0
L 2847 2094
Q 2847 2600 2669 2842
Q 2491 3084 2119 3084
Q 1678 3084 1418 2786
Q 1159 2488 1159 1978
L 1159 0
L 581 0
L 581 3500
L 1159 3500
L 1159 2956
Q 1356 3278 1631 3431
Q 1906 3584 2284 3584
Q 2666 3584 2933 3390
Q 3200 3197 3328 2828
z
" transform="scale(0.015625)"/>
      <path id="DejaVuSans-13ae" d="M 4531 4863
L 4531 4384
L 3981 4384
Q 3672 4384 3551 4259
Q 3431 4134 3431 3809
L 3431 3500
L 4378 3500
L 4378 3053
L 3431 3053
L 3431 0
L 2853 0
L 2853 3053
L 1275 3053
L 1275 0
L 697 0
L 697 3053
L 147 3053
L 147 3500
L 697 3500
L 697 3744
Q 697 4328 969 4595
Q 1241 4863 1831 4863
L 2375 4863
L 2375 4384
L 1825 4384
Q 1516 4384 1394 4259
Q 1275 4134 1275 3809
L 1275 3500
L 2853 3500
L 2853 3744
Q 2853 4328 3125 4595
Q 3397 4863 3988 4863
L 4531 4863
z
" transform="scale(0.015625)"/>
      <path id="DejaVuSans-5c" d="M 2059 -325
Q 1816 -950 1584 -1140
Q 1353 -1331 966 -1331
L 506 -1331
L 506 -850
L 844 -850
Q 1081 -850 1212 -737
Q 1344 -625 1503 -206
L 1606 56
L 191 3500
L 800 3500
L 1894 763
L 2988 3500
L 3597 3500
L 2059 -325
z
" transform="scale(0.015625)"/>
      <path id="DejaVuSans-27" d="M 1259 4147
L 1259 519
L 2022 519
Q 2988 519 3436 956
Q 3884 1394 3884 2338
Q 3884 3275 3436 3711
Q 2988 4147 2022 4147
L 1259 4147
z
M 628 4666
L 1925 4666
Q 3281 4666 3915 4102
Q 4550 3538 4550 2338
Q 4550 1131 3912 565
Q 3275 0 1925 0
L 628 0
L 628 4666
z
" transform="scale(0.015625)"/>
     </defs>
     <use xlink:href="#DejaVuSans-38"/>
     <use xlink:href="#DejaVuSans-51" transform="translate(73.1875 0)"/>
     <use xlink:href="#DejaVuSans-4c" transform="translate(136.5625 0)"/>
     <use xlink:href="#DejaVuSans-49" transform="translate(164.34375 0)"/>
     <use xlink:href="#DejaVuSans-52" transform="translate(199.546875 0)"/>
     <use xlink:href="#DejaVuSans-55" transform="translate(260.734375 0)"/>
     <use xlink:href="#DejaVuSans-50" transform="translate(300.09375 0)"/>
     <use xlink:href="#DejaVuSans-f" transform="translate(397.5 0)"/>
     <use xlink:href="#DejaVuSans-3" transform="translate(429.28125 0)"/>
     <use xlink:href="#DejaVuSans-46" transform="translate(461.0625 0)"/>
     <use xlink:href="#DejaVuSans-52" transform="translate(516.046875 0)"/>
     <use xlink:href="#DejaVuSans-51" transform="translate(577.234375 0)"/>
     <use xlink:href="#DejaVuSans-56" transform="translate(640.609375 0)"/>
     <use xlink:href="#DejaVuSans-57" transform="translate(692.703125 0)"/>
     <use xlink:href="#DejaVuSans-44" transform="translate(731.90625 0)"/>
     <use xlink:href="#DejaVuSans-51" transform="translate(793.1875 0)"/>
     <use xlink:href="#DejaVuSans-57" transform="translate(856.5625 0)"/>
     <use xlink:href="#DejaVuSans-3" transform="translate(895.765625 0)"/>
     <use xlink:href="#DejaVuSans-47" transform="translate(927.546875 0)"/>
     <use xlink:href="#DejaVuSans-4c" transform="translate(991.03125 0)"/>
     <use xlink:href="#DejaVuSans-13ae" transform="translate(1018.8125 0)"/>
     <use xlink:href="#DejaVuSans-58" transform="translate(1087.703125 0)"/>
     <use xlink:href="#DejaVuSans-56" transform="translate(1151.078125 0)"/>
     <use xlink:href="#DejaVuSans-4c" transform="translate(1203.171875 0)"/>
     <use xlink:href="#DejaVuSans-59" transform="translate(1230.953125 0)"/>
     <use xlink:href="#DejaVuSans-4c" transform="translate(1290.140625 0)"/>
     <use xlink:href="#DejaVuSans-57" transform="translate(1317.921875 0)"/>
     <use xlink:href="#DejaVuSans-5c" transform="translate(1357.125 0)"/>
     <use xlink:href="#DejaVuSans-3" transform="translate(1416.3125 0)"/>
     <use xlink:href="#DejaVuSans-27" transform="translate(1448.09375 0)"/>
    </g>
   </g>
   <g id="text_8">
    <!-- Initial interior concentration: C = 0 -->
    <g transform="translate(300.178828 159.249057) scale(0.11 -0.11)">
     <defs>
      <path id="DejaVuSans-1d" d="M 750 794
L 1409 794
L 1409 0
L 750 0
L 750 794
z
M 750 3309
L 1409 3309
L 1409 2516
L 750 2516
L 750 3309
z
" transform="scale(0.015625)"/>
      <path id="DejaVuSans-26" d="M 4122 4306
L 4122 3641
Q 3803 3938 3442 4084
Q 3081 4231 2675 4231
Q 1875 4231 1450 3742
Q 1025 3253 1025 2328
Q 1025 1406 1450 917
Q 1875 428 2675 428
Q 3081 428 3442 575
Q 3803 722 4122 1019
L 4122 359
Q 3791 134 3420 21
Q 3050 -91 2638 -91
Q 1578 -91 968 557
Q 359 1206 359 2328
Q 359 3453 968 4101
Q 1578 4750 2638 4750
Q 3056 4750 3426 4639
Q 3797 4528 4122 4306
z
" transform="scale(0.015625)"/>
     </defs>
     <use xlink:href="#DejaVuSans-2c"/>
     <use xlink:href="#DejaVuSans-51" transform="translate(29.5 0)"/>
     <use xlink:href="#DejaVuSans-4c" transform="translate(92.875 0)"/>
     <use xlink:href="#DejaVuSans-57" transform="translate(120.65625 0)"/>
     <use xlink:href="#DejaVuSans-4c" transform="translate(159.859375 0)"/>
     <use xlink:href="#DejaVuSans-44" transform="translate(187.640625 0)"/>
     <use xlink:href="#DejaVuSans-4f" transform="translate(248.921875 0)"/>
     <use xlink:href="#DejaVuSans-3" transform="translate(276.703125 0)"/>
     <use xlink:href="#DejaVuSans-4c" transform="translate(308.484375 0)"/>
     <use xlink:href="#DejaVuSans-51" transform="translate(336.265625 0)"/>
     <use xlink:href="#DejaVuSans-57" transform="translate(399.640625 0)"/>
     <use xlink:href="#DejaVuSans-48" transform="translate(438.84375 0)"/>
     <use xlink:href="#DejaVuSans-55" transform="translate(500.375 0)"/>
     <use xlink:href="#DejaVuSans-4c" transform="translate(541.484375 0)"/>
     <use xlink:href="#DejaVuSans-52" transform="translate(569.265625 0)"/>
     <use xlink:href="#DejaVuSans-55" transform="translate(630.453125 0)"/>
     <use xlink:href="#DejaVuSans-3" transform="translate(671.5625 0)"/>
     <use xlink:href="#DejaVuSans-46" transform="translate(703.34375 0)"/>
     <use xlink:href="#DejaVuSans-52" transform="translate(758.328125 0)"/>
     <use xlink:href="#DejaVuSans-51" transform="translate(819.515625 0)"/>
     <use xlink:href="#DejaVuSans-46" transform="translate(882.890625 0)"/>
     <use xlink:href="#DejaVuSans-48" transform="translate(937.875 0)"/>
     <use xlink:href="#DejaVuSans-51" transform="translate(999.40625 0)"/>
     <use xlink:href="#DejaVuSans-57" transform="translate(1062.78125 0)"/>
     <use xlink:href="#DejaVuSans-55" transform="translate(1101.984375 0)"/>
     <use xlink:href="#DejaVuSans-44" transform="translate(1143.09375 0)"/>
     <use xlink:href="#DejaVuSans-57" transform="translate(1204.375 0)"/>
     <use xlink:href="#DejaVuSans-4c" transform="translate(1243.578125 0)"/>
     <use xlink:href="#DejaVuSans-52" transform="translate(1271.359375 0)"/>
     <use xlink:href="#DejaVuSans-51" transform="translate(1332.546875 0)"/>
     <use xlink:href="#DejaVuSans-1d" transform="translate(1395.921875 0)"/>
     <use xlink:href="#DejaVuSans-3" transform="translate(1429.609375 0)"/>
     <use xlink:href="#DejaVuSans-26" transform="translate(1461.390625 0)"/>
     <use xlink:href="#DejaVuSans-3" transform="translate(1531.21875 0)"/>
     <use xlink:href="#DejaVuSans-20" transform="translate(1563 0)"/>
     <use xlink:href="#DejaVuSans-3" transform="translate(1646.796875 0)"/>
     <use xlink:href="#DejaVuSans-13" transform="translate(1678.578125 0)"/>
    </g>
   </g>
   <g id="patch_5">
    <path d="M 221.389434 204.822642
Q 396.000226 204.822642 570.611018 204.822642
" style="fill: none; stroke: #245777; stroke-linecap: round"/>
    <path d="M 225.389434 206.822642
L 221.389434 204.822642
L 225.389434 202.822642
" style="fill: none; stroke: #245777; stroke-linecap: round"/>
    <path d="M 566.611018 202.822642
L 570.611018 204.822642
L 566.611018 206.822642
" style="fill: none; stroke: #245777; stroke-linecap: round"/>
   </g>
   <g id="text_9">
    <!-- Full film thickness L -->
    <g transform="translate(341.959063 229.362264) scale(0.11 -0.11)">
     <defs>
      <path id="DejaVuSans-29" d="M 628 4666
L 3309 4666
L 3309 4134
L 1259 4134
L 1259 2759
L 3109 2759
L 3109 2228
L 1259 2228
L 1259 0
L 628 0
L 628 4666
z
" transform="scale(0.015625)"/>
      <path id="DejaVuSans-13af" d="M 3431 3500
L 3431 0
L 2853 0
L 2853 3053
L 1275 3053
L 1275 0
L 697 0
L 697 3053
L 147 3053
L 147 3500
L 697 3500
L 697 3744
Q 697 4316 967 4589
Q 1238 4863 1797 4863
L 2375 4863
L 2375 4384
L 1825 4384
Q 1516 4384 1395 4259
Q 1275 4134 1275 3809
L 1275 3500
L 3431 3500
z
M 2853 4856
L 3431 4856
L 3431 4128
L 2853 4128
L 2853 4856
z
" transform="scale(0.015625)"/>
      <path id="DejaVuSans-4e" d="M 581 4863
L 1159 4863
L 1159 1991
L 2875 3500
L 3609 3500
L 1753 1863
L 3688 0
L 2938 0
L 1159 1709
L 1159 0
L 581 0
L 581 4863
z
" transform="scale(0.015625)"/>
      <path id="DejaVuSans-2f" d="M 628 4666
L 1259 4666
L 1259 531
L 3531 531
L 3531 0
L 628 0
L 628 4666
z
" transform="scale(0.015625)"/>
     </defs>
     <use xlink:href="#DejaVuSans-29"/>
     <use xlink:href="#DejaVuSans-58" transform="translate(52.046875 0)"/>
     <use xlink:href="#DejaVuSans-4f" transform="translate(115.421875 0)"/>
     <use xlink:href="#DejaVuSans-4f" transform="translate(143.203125 0)"/>
     <use xlink:href="#DejaVuSans-3" transform="translate(170.984375 0)"/>
     <use xlink:href="#DejaVuSans-13af" transform="translate(202.765625 0)"/>
     <use xlink:href="#DejaVuSans-4f" transform="translate(265.75 0)"/>
     <use xlink:href="#DejaVuSans-50" transform="translate(293.53125 0)"/>
     <use xlink:href="#DejaVuSans-3" transform="translate(390.9375 0)"/>
     <use xlink:href="#DejaVuSans-57" transform="translate(422.71875 0)"/>
     <use xlink:href="#DejaVuSans-4b" transform="translate(461.921875 0)"/>
     <use xlink:href="#DejaVuSans-4c" transform="translate(525.296875 0)"/>
     <use xlink:href="#DejaVuSans-46" transform="translate(553.078125 0)"/>
     <use xlink:href="#DejaVuSans-4e" transform="translate(608.0625 0)"/>
     <use xlink:href="#DejaVuSans-51" transform="translate(665.96875 0)"/>
     <use xlink:href="#DejaVuSans-48" transform="translate(729.34375 0)"/>
     <use xlink:href="#DejaVuSans-56" transform="translate(790.875 0)"/>
     <use xlink:href="#DejaVuSans-56" transform="translate(842.96875 0)"/>
     <use xlink:href="#DejaVuSans-3" transform="translate(895.0625 0)"/>
     <use xlink:href="#DejaVuSans-2f" transform="translate(926.84375 0)"/>
    </g>
   </g>
   <g id="text_10">
    <!-- x = 0 -->
    <g transform="translate(204.764134 227.258868) scale(0.1 -0.1)">
     <use xlink:href="#DejaVuSans-5b"/>
     <use xlink:href="#DejaVuSans-3" transform="translate(59.1875 0)"/>
     <use xlink:href="#DejaVuSans-20" transform="translate(90.96875 0)"/>
     <use xlink:href="#DejaVuSans-3" transform="translate(174.765625 0)"/>
     <use xlink:href="#DejaVuSans-13" transform="translate(206.546875 0)"/>
    </g>
   </g>
   <g id="text_11">
    <!-- x = L -->
    <g transform="translate(560.613991 227.258868) scale(0.1 -0.1)">
     <use xlink:href="#DejaVuSans-5b"/>
     <use xlink:href="#DejaVuSans-3" transform="translate(59.1875 0)"/>
     <use xlink:href="#DejaVuSans-20" transform="translate(90.96875 0)"/>
     <use xlink:href="#DejaVuSans-3" transform="translate(174.765625 0)"/>
     <use xlink:href="#DejaVuSans-2f" transform="translate(206.546875 0)"/>
    </g>
   </g>
   <g id="PathCollection_1">
    <defs>
     <path id="m8c25cb09bc" d="M 0 3.708099
C 0.983399 3.708099 1.926654 3.317391 2.622022 2.622022
C 3.317391 1.926654 3.708099 0.983399 3.708099 0
C 3.708099 -0.983399 3.317391 -1.926654 2.622022 -2.622022
C 1.926654 -3.317391 0.983399 -3.708099 0 -3.708099
C -0.983399 -3.708099 -1.926654 -3.317391 -2.622022 -2.622022
C -3.317391 -1.926654 -3.708099 -0.983399 -3.708099 0
C -3.708099 0.983399 -3.317391 1.926654 -2.622022 2.622022
C -1.926654 3.317391 -0.983399 3.708099 0 3.708099
z
" style="stroke: #cc6b36"/>
    </defs>
    <g clip-path="url(#p8abcea6dc9)">
     <use xlink:href="#m8c25cb09bc" x="218.272727" y="264.418868" style="fill: #cc6b36; stroke: #cc6b36"/>
     <use xlink:href="#m8c25cb09bc" x="573.727273" y="264.418868" style="fill: #cc6b36; stroke: #cc6b36"/>
    </g>
   </g>
   <g id="text_12">
    <!-- Uniform grid -->
    <g transform="translate(36.990909 267.276719) scale(0.11 -0.11)">
     <defs>
      <path id="DejaVuSans-4a" d="M 2906 1791
Q 2906 2416 2648 2759
Q 2391 3103 1925 3103
Q 1463 3103 1205 2759
Q 947 2416 947 1791
Q 947 1169 1205 825
Q 1463 481 1925 481
Q 2391 481 2648 825
Q 2906 1169 2906 1791
z
M 3481 434
Q 3481 -459 3084 -895
Q 2688 -1331 1869 -1331
Q 1566 -1331 1297 -1286
Q 1028 -1241 775 -1147
L 775 -588
Q 1028 -725 1275 -790
Q 1522 -856 1778 -856
Q 2344 -856 2625 -561
Q 2906 -266 2906 331
L 2906 616
Q 2728 306 2450 153
Q 2172 0 1784 0
Q 1141 0 747 490
Q 353 981 353 1791
Q 353 2603 747 3093
Q 1141 3584 1784 3584
Q 2172 3584 2450 3431
Q 2728 3278 2906 2969
L 2906 3500
L 3481 3500
L 3481 434
z
" transform="scale(0.015625)"/>
     </defs>
     <use xlink:href="#DejaVuSans-38"/>
     <use xlink:href="#DejaVuSans-51" transform="translate(73.1875 0)"/>
     <use xlink:href="#DejaVuSans-4c" transform="translate(136.5625 0)"/>
     <use xlink:href="#DejaVuSans-49" transform="translate(164.34375 0)"/>
     <use xlink:href="#DejaVuSans-52" transform="translate(199.546875 0)"/>
     <use xlink:href="#DejaVuSans-55" transform="translate(260.734375 0)"/>
     <use xlink:href="#DejaVuSans-50" transform="translate(300.09375 0)"/>
     <use xlink:href="#DejaVuSans-3" transform="translate(397.5 0)"/>
     <use xlink:href="#DejaVuSans-4a" transform="translate(429.28125 0)"/>
     <use xlink:href="#DejaVuSans-55" transform="translate(492.765625 0)"/>
     <use xlink:href="#DejaVuSans-4c" transform="translate(533.875 0)"/>
     <use xlink:href="#DejaVuSans-47" transform="translate(561.65625 0)"/>
    </g>
   </g>
   <g id="text_13">
    <!-- i − 1 -->
    <g transform="translate(348.516264 293.866415) scale(0.1 -0.1)">
     <defs>
      <path id="DejaVuSans-c9c" d="M 678 2272
L 4684 2272
L 4684 1741
L 678 1741
L 678 2272
z
" transform="scale(0.015625)"/>
      <path id="DejaVuSans-14" d="M 794 531
L 1825 531
L 1825 4091
L 703 3866
L 703 4441
L 1819 4666
L 2450 4666
L 2450 531
L 3481 531
L 3481 0
L 794 0
L 794 531
z
" transform="scale(0.015625)"/>
     </defs>
     <use xlink:href="#DejaVuSans-4c"/>
     <use xlink:href="#DejaVuSans-3" transform="translate(27.78125 0)"/>
     <use xlink:href="#DejaVuSans-c9c" transform="translate(59.5625 0)"/>
     <use xlink:href="#DejaVuSans-3" transform="translate(143.359375 0)"/>
     <use xlink:href="#DejaVuSans-14" transform="translate(175.140625 0)"/>
    </g>
   </g>
   <g id="text_14">
    <!-- i -->
    <g transform="translate(394.610937 293.866415) scale(0.1 -0.1)">
     <use xlink:href="#DejaVuSans-4c"/>
    </g>
   </g>
   <g id="text_15">
    <!-- i + 1 -->
    <g transform="translate(419.607173 293.866415) scale(0.1 -0.1)">
     <defs>
      <path id="DejaVuSans-e" d="M 2944 4013
L 2944 2272
L 4684 2272
L 4684 1741
L 2944 1741
L 2944 0
L 2419 0
L 2419 1741
L 678 1741
L 678 2272
L 2419 2272
L 2419 4013
L 2944 4013
z
" transform="scale(0.015625)"/>
     </defs>
     <use xlink:href="#DejaVuSans-4c"/>
     <use xlink:href="#DejaVuSans-3" transform="translate(27.78125 0)"/>
     <use xlink:href="#DejaVuSans-e" transform="translate(59.5625 0)"/>
     <use xlink:href="#DejaVuSans-3" transform="translate(143.359375 0)"/>
     <use xlink:href="#DejaVuSans-14" transform="translate(175.140625 0)"/>
    </g>
   </g>
   <g id="text_16">
    <!-- $u_i^{n+1}=u_i^n+r(u_{i-1}^n-2u_i^n+u_{i+1}^n)$ -->
    <g transform="translate(277.35 331.727547) scale(0.15 -0.15)">
     <defs>
      <path id="DejaVuSans-Oblique-58" d="M 428 1388
L 838 3500
L 1416 3500
L 1006 1409
Q 975 1256 961 1147
Q 947 1038 947 966
Q 947 700 1109 554
Q 1272 409 1569 409
Q 2031 409 2368 721
Q 2706 1034 2809 1563
L 3194 3500
L 3769 3500
L 3091 0
L 2516 0
L 2631 550
Q 2388 244 2052 76
Q 1716 -91 1338 -91
Q 878 -91 622 161
Q 366 413 366 863
Q 366 956 381 1097
Q 397 1238 428 1388
z
" transform="scale(0.015625)"/>
      <path id="DejaVuSans-Oblique-51" d="M 3566 2113
L 3156 0
L 2578 0
L 2988 2091
Q 3016 2238 3031 2350
Q 3047 2463 3047 2528
Q 3047 2791 2881 2937
Q 2716 3084 2419 3084
Q 1956 3084 1622 2776
Q 1288 2469 1184 1941
L 800 0
L 225 0
L 903 3500
L 1478 3500
L 1363 2950
Q 1603 3253 1940 3418
Q 2278 3584 2650 3584
Q 3113 3584 3367 3334
Q 3622 3084 3622 2631
Q 3622 2519 3608 2391
Q 3594 2263 3566 2113
z
" transform="scale(0.015625)"/>
      <path id="DejaVuSans-Oblique-4c" d="M 1172 4863
L 1747 4863
L 1606 4134
L 1031 4134
L 1172 4863
z
M 909 3500
L 1484 3500
L 800 0
L 225 0
L 909 3500
z
" transform="scale(0.015625)"/>
      <path id="DejaVuSans-Oblique-55" d="M 2853 2969
Q 2766 3016 2653 3041
Q 2541 3066 2413 3066
Q 1953 3066 1609 2717
Q 1266 2369 1153 1784
L 800 0
L 225 0
L 909 3500
L 1484 3500
L 1375 2956
Q 1603 3259 1920 3421
Q 2238 3584 2597 3584
Q 2691 3584 2781 3573
Q 2872 3563 2963 3538
L 2853 2969
z
" transform="scale(0.015625)"/>
      <path id="DejaVuSans-15" d="M 1228 531
L 3431 531
L 3431 0
L 469 0
L 469 531
Q 828 903 1448 1529
Q 2069 2156 2228 2338
Q 2531 2678 2651 2914
Q 2772 3150 2772 3378
Q 2772 3750 2511 3984
Q 2250 4219 1831 4219
Q 1534 4219 1204 4116
Q 875 4013 500 3803
L 500 4441
Q 881 4594 1212 4672
Q 1544 4750 1819 4750
Q 2544 4750 2975 4387
Q 3406 4025 3406 3419
Q 3406 3131 3298 2873
Q 3191 2616 2906 2266
Q 2828 2175 2409 1742
Q 1991 1309 1228 531
z
" transform="scale(0.015625)"/>
     </defs>
     <use xlink:href="#DejaVuSans-Oblique-58" transform="translate(0 0.215625)"/>
     <use xlink:href="#DejaVuSans-Oblique-51" transform="translate(67.845052 43.965625) scale(0.7)"/>
     <use xlink:href="#DejaVuSans-e" transform="translate(125.847982 43.965625) scale(0.7)"/>
     <use xlink:href="#DejaVuSans-14" transform="translate(198.138021 43.965625) scale(0.7)"/>
     <use xlink:href="#DejaVuSans-Oblique-4c" transform="translate(63.378906 -34.223437) scale(0.7)"/>
     <use xlink:href="#DejaVuSans-20" transform="translate(264.890951 0.215625)"/>
     <use xlink:href="#DejaVuSans-Oblique-58" transform="translate(368.162435 0.215625)"/>
     <use xlink:href="#DejaVuSans-Oblique-51" transform="translate(436.007487 43.965625) scale(0.7)"/>
     <use xlink:href="#DejaVuSans-Oblique-4c" transform="translate(431.541341 -34.223437) scale(0.7)"/>
     <use xlink:href="#DejaVuSans-e" transform="translate(502.589518 0.215625)"/>
     <use xlink:href="#DejaVuSans-Oblique-55" transform="translate(605.861003 0.215625)"/>
     <use xlink:href="#DejaVuSans-b" transform="translate(646.974284 0.215625)"/>
     <use xlink:href="#DejaVuSans-Oblique-58" transform="translate(685.987956 0.215625)"/>
     <use xlink:href="#DejaVuSans-Oblique-51" transform="translate(753.833008 43.965625) scale(0.7)"/>
     <use xlink:href="#DejaVuSans-Oblique-4c" transform="translate(749.366862 -34.223437) scale(0.7)"/>
     <use xlink:href="#DejaVuSans-c9c" transform="translate(782.452799 -34.223437) scale(0.7)"/>
     <use xlink:href="#DejaVuSans-14" transform="translate(854.742839 -34.223437) scale(0.7)"/>
     <use xlink:href="#DejaVuSans-c9c" transform="translate(921.495768 0.215625)"/>
     <use xlink:href="#DejaVuSans-15" transform="translate(1024.767253 0.215625)"/>
     <use xlink:href="#DejaVuSans-Oblique-58" transform="translate(1088.390299 0.215625)"/>
     <use xlink:href="#DejaVuSans-Oblique-51" transform="translate(1156.235352 43.965625) scale(0.7)"/>
     <use xlink:href="#DejaVuSans-Oblique-4c" transform="translate(1151.769206 -34.223437) scale(0.7)"/>
     <use xlink:href="#DejaVuSans-e" transform="translate(1222.817383 0.215625)"/>
     <use xlink:href="#DejaVuSans-Oblique-58" transform="translate(1326.088867 0.215625)"/>
     <use xlink:href="#DejaVuSans-Oblique-51" transform="translate(1393.933919 43.965625) scale(0.7)"/>
     <use xlink:href="#DejaVuSans-Oblique-4c" transform="translate(1389.467773 -34.223437) scale(0.7)"/>
     <use xlink:href="#DejaVuSans-e" transform="translate(1422.553711 -34.223437) scale(0.7)"/>
     <use xlink:href="#DejaVuSans-14" transform="translate(1494.84375 -34.223437) scale(0.7)"/>
     <use xlink:href="#DejaVuSans-c" transform="translate(1542.114258 0.215625)"/>
    </g>
   </g>
   <g id="text_17">
    <!-- Orange nodes: fixed boundaries   |   Blue nodes: FTCS updates   |   r ≤ 1/2 -->
    <g transform="translate(210.903906 365.381887) scale(0.1 -0.1)">
     <defs>
      <path id="DejaVuSans-32" d="M 2522 4238
Q 1834 4238 1429 3725
Q 1025 3213 1025 2328
Q 1025 1447 1429 934
Q 1834 422 2522 422
Q 3209 422 3611 934
Q 4013 1447 4013 2328
Q 4013 3213 3611 3725
Q 3209 4238 2522 4238
z
M 2522 4750
Q 3503 4750 4090 4092
Q 4678 3434 4678 2328
Q 4678 1225 4090 567
Q 3503 -91 2522 -91
Q 1538 -91 948 565
Q 359 1222 359 2328
Q 359 3434 948 4092
Q 1538 4750 2522 4750
z
" transform="scale(0.015625)"/>
      <path id="DejaVuSans-5f" d="M 1344 4891
L 1344 -1509
L 813 -1509
L 813 4891
L 1344 4891
z
" transform="scale(0.015625)"/>
      <path id="DejaVuSans-25" d="M 1259 2228
L 1259 519
L 2272 519
Q 2781 519 3026 730
Q 3272 941 3272 1375
Q 3272 1813 3026 2020
Q 2781 2228 2272 2228
L 1259 2228
z
M 1259 4147
L 1259 2741
L 2194 2741
Q 2656 2741 2882 2914
Q 3109 3088 3109 3444
Q 3109 3797 2882 3972
Q 2656 4147 2194 4147
L 1259 4147
z
M 628 4666
L 2241 4666
Q 2963 4666 3353 4366
Q 3744 4066 3744 3513
Q 3744 3084 3544 2831
Q 3344 2578 2956 2516
Q 3422 2416 3680 2098
Q 3938 1781 3938 1306
Q 3938 681 3513 340
Q 3088 0 2303 0
L 628 0
L 628 4666
z
" transform="scale(0.015625)"/>
      <path id="DejaVuSans-37" d="M -19 4666
L 3928 4666
L 3928 4134
L 2272 4134
L 2272 0
L 1638 0
L 1638 4134
L -19 4134
L -19 4666
z
" transform="scale(0.015625)"/>
      <path id="DejaVuSans-36" d="M 3425 4513
L 3425 3897
Q 3066 4069 2747 4153
Q 2428 4238 2131 4238
Q 1616 4238 1336 4038
Q 1056 3838 1056 3469
Q 1056 3159 1242 3001
Q 1428 2844 1947 2747
L 2328 2669
Q 3034 2534 3370 2195
Q 3706 1856 3706 1288
Q 3706 609 3251 259
Q 2797 -91 1919 -91
Q 1588 -91 1214 -16
Q 841 59 441 206
L 441 856
Q 825 641 1194 531
Q 1563 422 1919 422
Q 2459 422 2753 634
Q 3047 847 3047 1241
Q 3047 1584 2836 1778
Q 2625 1972 2144 2069
L 1759 2144
Q 1053 2284 737 2584
Q 422 2884 422 3419
Q 422 4038 858 4394
Q 1294 4750 2059 4750
Q 2388 4750 2728 4690
Q 3069 4631 3425 4513
z
" transform="scale(0.015625)"/>
      <path id="DejaVuSans-cee" d="M 4684 3175
L 1684 2309
L 4684 1453
L 4684 897
L 678 2047
L 678 2578
L 4684 3725
L 4684 3175
z
M 678 531
L 4684 531
L 4684 0
L 678 0
L 678 531
z
" transform="scale(0.015625)"/>
      <path id="DejaVuSans-12" d="M 1625 4666
L 2156 4666
L 531 -594
L 0 -594
L 1625 4666
z
" transform="scale(0.015625)"/>
     </defs>
     <use xlink:href="#DejaVuSans-32"/>
     <use xlink:href="#DejaVuSans-55" transform="translate(78.71875 0)"/>
     <use xlink:href="#DejaVuSans-44" transform="translate(119.828125 0)"/>
     <use xlink:href="#DejaVuSans-51" transform="translate(181.109375 0)"/>
     <use xlink:href="#DejaVuSans-4a" transform="translate(244.484375 0)"/>
     <use xlink:href="#DejaVuSans-48" transform="translate(307.96875 0)"/>
     <use xlink:href="#DejaVuSans-3" transform="translate(369.5 0)"/>
     <use xlink:href="#DejaVuSans-51" transform="translate(401.28125 0)"/>
     <use xlink:href="#DejaVuSans-52" transform="translate(464.65625 0)"/>
     <use xlink:href="#DejaVuSans-47" transform="translate(525.84375 0)"/>
     <use xlink:href="#DejaVuSans-48" transform="translate(589.328125 0)"/>
     <use xlink:href="#DejaVuSans-56" transform="translate(650.859375 0)"/>
     <use xlink:href="#DejaVuSans-1d" transform="translate(702.953125 0)"/>
     <use xlink:href="#DejaVuSans-3" transform="translate(736.640625 0)"/>
     <use xlink:href="#DejaVuSans-13af" transform="translate(768.421875 0)"/>
     <use xlink:href="#DejaVuSans-5b" transform="translate(831.40625 0)"/>
     <use xlink:href="#DejaVuSans-48" transform="translate(887.515625 0)"/>
     <use xlink:href="#DejaVuSans-47" transform="translate(949.046875 0)"/>
     <use xlink:href="#DejaVuSans-3" transform="translate(1012.53125 0)"/>
     <use xlink:href="#DejaVuSans-45" transform="translate(1044.3125 0)"/>
     <use xlink:href="#DejaVuSans-52" transform="translate(1107.796875 0)"/>
     <use xlink:href="#DejaVuSans-58" transform="translate(1168.984375 0)"/>
     <use xlink:href="#DejaVuSans-51" transform="translate(1232.359375 0)"/>
     <use xlink:href="#DejaVuSans-47" transform="translate(1295.734375 0)"/>
     <use xlink:href="#DejaVuSans-44" transform="translate(1359.21875 0)"/>
     <use xlink:href="#DejaVuSans-55" transform="translate(1420.5 0)"/>
     <use xlink:href="#DejaVuSans-4c" transform="translate(1461.609375 0)"/>
     <use xlink:href="#DejaVuSans-48" transform="translate(1489.390625 0)"/>
     <use xlink:href="#DejaVuSans-56" transform="translate(1550.921875 0)"/>
     <use xlink:href="#DejaVuSans-3" transform="translate(1603.015625 0)"/>
     <use xlink:href="#DejaVuSans-3" transform="translate(1634.796875 0)"/>
     <use xlink:href="#DejaVuSans-3" transform="translate(1666.578125 0)"/>
     <use xlink:href="#DejaVuSans-5f" transform="translate(1698.359375 0)"/>
     <use xlink:href="#DejaVuSans-3" transform="translate(1732.046875 0)"/>
     <use xlink:href="#DejaVuSans-3" transform="translate(1763.828125 0)"/>
     <use xlink:href="#DejaVuSans-3" transform="translate(1795.609375 0)"/>
     <use xlink:href="#DejaVuSans-25" transform="translate(1827.390625 0)"/>
     <use xlink:href="#DejaVuSans-4f" transform="translate(1896 0)"/>
     <use xlink:href="#DejaVuSans-58" transform="translate(1923.78125 0)"/>
     <use xlink:href="#DejaVuSans-48" transform="translate(1987.15625 0)"/>
     <use xlink:href="#DejaVuSans-3" transform="translate(2048.6875 0)"/>
     <use xlink:href="#DejaVuSans-51" transform="translate(2080.46875 0)"/>
     <use xlink:href="#DejaVuSans-52" transform="translate(2143.84375 0)"/>
     <use xlink:href="#DejaVuSans-47" transform="translate(2205.03125 0)"/>
     <use xlink:href="#DejaVuSans-48" transform="translate(2268.515625 0)"/>
     <use xlink:href="#DejaVuSans-56" transform="translate(2330.046875 0)"/>
     <use xlink:href="#DejaVuSans-1d" transform="translate(2382.140625 0)"/>
     <use xlink:href="#DejaVuSans-3" transform="translate(2415.828125 0)"/>
     <use xlink:href="#DejaVuSans-29" transform="translate(2447.609375 0)"/>
     <use xlink:href="#DejaVuSans-37" transform="translate(2503.375 0)"/>
     <use xlink:href="#DejaVuSans-26" transform="translate(2558.59375 0)"/>
     <use xlink:href="#DejaVuSans-36" transform="translate(2628.421875 0)"/>
     <use xlink:href="#DejaVuSans-3" transform="translate(2691.90625 0)"/>
     <use xlink:href="#DejaVuSans-58" transform="translate(2723.6875 0)"/>
     <use xlink:href="#DejaVuSans-53" transform="translate(2787.0625 0)"/>
     <use xlink:href="#DejaVuSans-47" transform="translate(2850.546875 0)"/>
     <use xlink:href="#DejaVuSans-44" transform="translate(2914.03125 0)"/>
     <use xlink:href="#DejaVuSans-57" transform="translate(2975.3125 0)"/>
     <use xlink:href="#DejaVuSans-48" transform="translate(3014.515625 0)"/>
     <use xlink:href="#DejaVuSans-56" transform="translate(3076.046875 0)"/>
     <use xlink:href="#DejaVuSans-3" transform="translate(3128.140625 0)"/>
     <use xlink:href="#DejaVuSans-3" transform="translate(3159.921875 0)"/>
     <use xlink:href="#DejaVuSans-3" transform="translate(3191.703125 0)"/>
     <use xlink:href="#DejaVuSans-5f" transform="translate(3223.484375 0)"/>
     <use xlink:href="#DejaVuSans-3" transform="translate(3257.171875 0)"/>
     <use xlink:href="#DejaVuSans-3" transform="translate(3288.953125 0)"/>
     <use xlink:href="#DejaVuSans-3" transform="translate(3320.734375 0)"/>
     <use xlink:href="#DejaVuSans-55" transform="translate(3352.515625 0)"/>
     <use xlink:href="#DejaVuSans-3" transform="translate(3393.625 0)"/>
     <use xlink:href="#DejaVuSans-cee" transform="translate(3425.40625 0)"/>
     <use xlink:href="#DejaVuSans-3" transform="translate(3509.203125 0)"/>
     <use xlink:href="#DejaVuSans-14" transform="translate(3540.984375 0)"/>
     <use xlink:href="#DejaVuSans-12" transform="translate(3604.609375 0)"/>
     <use xlink:href="#DejaVuSans-15" transform="translate(3638.296875 0)"/>
    </g>
   </g>
  </g>
 </g>
 <defs>
  <clipPath id="p8abcea6dc9">
   <rect x="5" y="5" width="782" height="371.6"/>
  </clipPath>
 </defs>
</svg>
